<?xml version="1.0" encoding="utf-8" ?>
<svg baseProfile="full" height="200mm" version="1.1" viewBox="0,0,200,200" width="200mm" xmlns="http://www.w3.org/2000/svg" xmlns:ev="http://www.w3.org/2001/xml-events" xmlns:xlink="http://www.w3.org/1999/xlink"><defs /><rect fill="#1a1a1a" height="200" width="200" x="0" y="0" /><text alignment-baseline="middle" fill="#e1ed5e" style="dominant-baseline: central; font-size:9.0px; font-family:Arial;" text-anchor="middle" x="100.0" y="100.0">2024</text><line stroke="#e1ed5e" stroke-width="0.3" x1="100.0" x2="100.0" y1="15.0" y2="10.0" /><path d="M 100.0 14.0 a86.0,86.0 0 0,1 42.35913384403234,11.155469271406648" fill="none" id="id25" stroke="none" /><text fill="#e1ed5e" style="font-size:6.75px; font-family:Arial;" text-anchor="middle"><textPath startOffset="22.145653131862478" xlink:href="#id25">January</textPath></text><path d="M 100.0 79.0 l 0.0 -35.881270300546596 a56.881270300546596,56.881270300546596 0 0,0 0.9764426428458257,0.008381585719770263 l -0.615949717996971 35.87598311302126" fill="#6eff28" stroke="none" /><path d="M 102.15924093988457 79.11130261209362 l 1.8747301363072923 -18.136313450691144 a39.232950355488256,39.232950355488256 0 0,0 0.6693217898404621,0.07499890262327825 l -2.185787827748551 18.101458787560897" fill="#ffaa0f" stroke="none" /><path d="M 102.87502721639298 79.19773525538626 l 2.439515854394326 -17.65112147893379 a38.818903643824974,38.818903643824974 0 0,0 0.6593203979803258,0.09689739355825751 l -2.742161357982334 17.60664301207665" fill="#ffa40f" stroke="none" /><path d="M 103.58742460773223 79.30868818359171 l 3.0310641097501922 -17.48237231109681 a38.74318717877992,38.74318717877992 0 0,0 0.6543268001830181,0.11924013976587793 l -3.3307256434842643 17.427763997399566" fill="#ffa30f" stroke="none" /><path d="M 104.64783097203109 79.52079915486377 l 13.943492916093248 -61.4376025354087 a84.0,84.0 0 0,0 1.40347138504046,0.3312154254150901 l -14.996096454873593 61.18919096634738" fill="#4dd2ff" stroke="none" /><path d="M 106.04205211174951 79.88797359093562 l 2.559087613292012 -8.518370366510386 a29.894468118642447,29.894468118642447 0 0,0 0.49021143437975917,0.1518687554572472 l -2.704939680543401 8.473185023246492" fill="#ff1c02" stroke="none" /><path d="M 107.06938296918511 80.22567764915836 l 6.19006272528519 -17.314707130066285 a39.387929724222175,39.387929724222175 0 0,0 0.6347287005981783,0.2330811707682484 l -6.486380577537494 17.205895110289315" fill="#ffac0f" stroke="none" /><line stroke="#e1ed5e" stroke-width="0.3" x1="143.13028292997686" x2="145.6673583964461" y1="26.7553504044142" y2="22.446841604673864" /><path d="M 143.63769802327073 25.89364864446614 a86.0,86.0 0 0,1 29.32050498858742,28.57503671076993" fill="none" id="id26" stroke="none" /><text fill="#e1ed5e" style="font-size:6.75px; font-family:Arial;" text-anchor="middle"><textPath startOffset="20.669276256404974" xlink:href="#id26">February</textPath></text><path d="M 111.8722381534696 82.67804972795209 l 16.14614497734885 -23.557708055340612 a49.559825042360245,49.559825042360245 0 0,0 0.6976251220519651,0.48699651548961637 l -16.548165190574576 23.277066724045866" fill="#c7ff1e" stroke="none" /><path d="M 113.86319453409587 84.22622945171908 l 5.887973254255623 -6.69943272300047 a29.91911586721683,29.91911586721683 0 0,0 0.382872038097373,0.3423665373728138 l -6.002110319176372 6.597370655744269" fill="#ff1c02" stroke="none" /><path d="M 114.13192950727249 84.46653392183569 l 13.157173776663294 -14.462038778153907 a40.55151624325192,40.55151624325192 0 0,0 0.5108916155258393,0.47287365216176847 l -13.403495163503099 14.234047379859764" fill="#ffbd11" stroke="none" /><path d="M 114.39649973595853 84.71141617570332 l 9.734856667771558 -10.338080430133775 a35.2001176516947,35.2001176516947 0 0,0 0.43635995835782043,0.4180229692451945 l -9.91088911199469 10.169445330583" fill="#ff6e0a" stroke="none" /><path d="M 115.8921839302757 86.27271002978787 l 13.437051165739417 -11.60660476281574 a38.755777035965394,38.755777035965394 0 0,0 0.43056826085699734,0.5072083286410539 l -13.634313990103527 11.374229651725134" fill="#ffa30f" stroke="none" /><path d="M 117.42321728460499 88.27688183743584 l 7.552548784830943 -5.081691881977285 a30.1029987108977,30.1029987108977 0 0,0 0.28479667424077676,0.4312184635510193 l -7.638669897992444 4.951293540087207" fill="#ff1f03" stroke="none" /><line stroke="#e1ed5e" stroke-width="0.3" x1="172.87174338648825" x2="177.1583165268699" y1="56.24261187166439" y2="53.66864786411523" /><path d="M 173.72905801456457 55.72781907015455 a86.0,86.0 0 0,1 12.242430191666344,42.057860355516425" fill="none" id="id27" stroke="none" /><text fill="#e1ed5e" style="font-size:6.75px; font-family:Arial;" text-anchor="middle"><textPath startOffset="22.145653131862474" xlink:href="#id27">March</textPath></text><path d="M 118.18653347947321 89.5 l 15.46786463344972 -8.93037580991089 a38.86075161982178,38.86075161982178 0 0,0 0.328589185612946,0.5805856061704197 l -15.618887184084041 8.663533433641353" fill="#ffa50f" stroke="none" /><path d="M 118.70294669586156 90.45014215332178 l 15.853069624223894 -8.09469030772195 a38.800107519012855,38.800107519012855 0 0,0 0.2978002236813537,0.5957999358239516 l -15.989689761116985 7.8213585157342465" fill="#ffa40f" stroke="none" /><path d="M 119.4528033332814 92.08871423366111 l 50.99885020845634 -20.74078840161445 a76.05509082823414,76.05509082823414 0 0,0 0.4814697404893907,1.2136182653462457 l -51.34737862391185 19.862269119054638" fill="#42ffd7" stroke="none" /><path d="M 120.77682067341334 96.94652285012252 l 7.083110715325599 -1.040973354839371 a28.159195690232657,28.159195690232657 0 0,0 0.06618146270037183,0.4788560958411353 l -7.099936694581184 0.9192289507981499" fill="#ff0000" stroke="none" /><path d="M 120.93736805541906 98.37931529534042 l 8.86458153431405 -0.6861746742877782 a29.89109900193084,29.89109900193084 0 0,0 0.03520892313002932,0.5119300150142022 l -8.875054418609146 0.5339012351192419" fill="#ff1c02" stroke="none" /><line stroke="#e1ed5e" stroke-width="0.3" x1="184.99686870605535" x2="189.99668451229388" y1="99.2704041080226" y2="99.22748670261217" /><path d="M 185.99683186730306 99.26182062694052 a86.0,86.0 0 0,1 -10.086455211305974,41.156179273409016" fill="none" id="id28" stroke="none" /><text fill="#e1ed5e" style="font-size:6.75px; font-family:Arial;" text-anchor="middle"><textPath startOffset="21.40746469413373" xlink:href="#id28">April</textPath></text><path d="M 120.93736805541906 101.62068470465957 l 8.96906624117629 0.694262451406382 a29.995896263855034,29.995896263855034 0 0,0 -0.04414592797381575,0.5130426001466611 l -8.955826690504733 -0.8481260989287005" fill="#ff1e03" stroke="none" /><path d="M 120.77682067341334 103.0534771498775 l 8.795555449369616 1.292643759470746 a29.8900350703377,29.8900350703377 0 0,0 -0.07896450217319949,0.5070087492636998 l -8.77206945505815 -1.4434406906658963" fill="#ff1c02" stroke="none" /><path d="M 120.65975698304385 103.76489593502545 l 8.841421869265561 1.6112015878387536 a29.987030167245543,29.987030167245543 0 0,0 -0.09663492927924992,0.5056347840233459 l -8.812460647704151 -1.7627389368954138" fill="#ff1d03" stroke="none" /><path d="M 120.43855184770803 104.8234425847677 l 8.735538514397733 2.0615633037596792 a29.975504241653205,29.975504241653205 0 0,0 -0.12248915061416793,0.4997975340309559 l -8.698861837267268 -2.211216662398735" fill="#ff1d03" stroke="none" /><path d="M 120.35273937422433 105.17358676015961 l 19.556069799635576 4.971076469651286 a41.17799462967862,41.17799462967862 0 0,0 -0.18002728887480107,0.6835929389875228 l -19.467853029956046 -5.306049913011612" fill="#ffc612" stroke="none" /><path d="M 119.94978838288452 106.5578916946017 l 34.083307674738315 11.203860213198043 a56.877546539970616,56.877546539970616 0 0,0 -0.31286599097918555,0.9249327096865702 l -33.88595626218676 -11.787294597358773" fill="#6eff28" stroke="none" /><path d="M 119.71291397450082 107.23885506374661 l 16.842638329485542 6.184850089436685 a38.94231970862911,38.94231970862911 0 0,0 -0.23582229371551408,0.6255466514543218 l -16.73398535195559 -6.473065021085165" fill="#ffa60f" stroke="none" /><line stroke="#e1ed5e" stroke-width="0.3" x1="174.33088141563837" x2="178.70328620479359" y1="141.23008692659167" y2="143.65538615756765" /><path d="M 175.20536237346943 141.71514677278685 a86.0,86.0 0 0,1 -30.301960400862466,31.631185727798858" fill="none" id="id29" stroke="none" /><text fill="#e1ed5e" style="font-size:6.75px; font-family:Arial;" text-anchor="middle"><textPath startOffset="22.145653131862474" xlink:href="#id29">May</textPath></text><line stroke="#e1ed5e" stroke-width="0.3" x1="143.1302829299769" x2="145.66735839644613" y1="173.24464959558577" y2="177.55315839532614" /><path d="M 143.63769802327073 174.10635135553383 a86.0,86.0 0 0,1 -40.68552437913181,11.842963189579606" fill="none" id="id30" stroke="none" /><text fill="#e1ed5e" style="font-size:6.75px; font-family:Arial;" text-anchor="middle"><textPath startOffset="21.407464694133747" xlink:href="#id30">June</textPath></text><line stroke="#e1ed5e" stroke-width="0.3" x1="101.45913802915013" x2="101.54496967792366" y1="184.9874750549273" y2="189.98673829345242" /><path d="M 101.47630435890484 185.9873277026323 a86.0,86.0 0 0,1 -42.54439059252881,-10.42667462771756" fill="none" id="id31" stroke="none" /><text fill="#e1ed5e" style="font-size:6.75px; font-family:Arial;" text-anchor="middle"><textPath startOffset="22.145653131862474" xlink:href="#id31">July</textPath></text><line stroke="#e1ed5e" stroke-width="0.3" x1="58.13341422392154" x2="55.67067388415222" y1="173.97424548756322" y2="178.32567169271397" /><path d="M 57.64086615596768 174.84453072859336 a86.0,86.0 0 0,1 -31.369924170532247,-30.572349798747897" fill="none" id="id32" stroke="none" /><text fill="#e1ed5e" style="font-size:6.75px; font-family:Arial;" text-anchor="middle"><textPath startOffset="22.145653131862474" xlink:href="#id32">August</textPath></text><line stroke="#e1ed5e" stroke-width="0.3" x1="26.387840678322732" x2="22.057713659400548" y1="142.50000000000003" y2="145.00000000000006" /><path d="M 25.521815274538298 143.00000000000003 a86.0,86.0 0 0,1 -11.493303480769221,-40.785679425670985" fill="none" id="id33" stroke="none" /><text fill="#e1ed5e" style="font-size:6.75px; font-family:Arial;" text-anchor="middle"><textPath startOffset="21.40746469413373" xlink:href="#id33">September</textPath></text><line stroke="#e1ed5e" stroke-width="0.3" x1="15.003131293944662" x2="10.003315487706104" y1="100.72959589197737" y2="100.7725132973878" /><path d="M 14.003168132696942 100.73817937305945 a86.0,86.0 0 0,1 10.791469493833604,-42.45332614584628" fill="none" id="id34" stroke="none" /><text fill="#e1ed5e" style="font-size:6.75px; font-family:Arial;" text-anchor="middle"><textPath startOffset="22.145653131862435" xlink:href="#id34">October</textPath></text><line stroke="#e1ed5e" stroke-width="0.3" x1="26.387840678322718" x2="22.05771365940052" y1="57.49999999999999" y2="54.99999999999999" /><path d="M 25.521815274538284 56.99999999999999 a86.0,86.0 0 0,1 29.574782752854787,-30.34633250058573" fill="none" id="id35" stroke="none" /><text fill="#e1ed5e" style="font-size:6.75px; font-family:Arial;" text-anchor="middle"><textPath startOffset="21.40746469413373" xlink:href="#id35">November</textPath></text><line stroke="#e1ed5e" stroke-width="0.3" x1="56.869717070023135" x2="54.33264160355391" y1="26.7553504044142" y2="22.446841604673864" /><path d="M 56.362301976729285 25.89364864446614 a86.0,86.0 0 0,1 42.16139366436587,-11.88097634709845" fill="none" id="id36" stroke="none" /><text fill="#e1ed5e" style="font-size:6.75px; font-family:Arial;" text-anchor="middle"><textPath startOffset="22.145653131862474" xlink:href="#id36">December</textPath></text></svg>