<?xml version="1.0" encoding="utf-8" ?>
<svg baseProfile="full" height="200mm" version="1.1" viewBox="0,0,200,200" width="200mm" xmlns="http://www.w3.org/2000/svg" xmlns:ev="http://www.w3.org/2001/xml-events" xmlns:xlink="http://www.w3.org/1999/xlink"><defs /><rect fill="#1a1a1a" height="200" width="200" x="0" y="0" /><text alignment-baseline="middle" fill="#e1ed5e" style="dominant-baseline: central; font-size:9.0px; font-family:Arial;" text-anchor="middle" x="100.0" y="100.0">2024</text><line stroke="#e1ed5e" stroke-width="0.3" x1="100.0" x2="100.0" y1="15.0" y2="10.0" /><path d="M 100.0 14.0 a86.0,86.0 0 0,1 42.35913384403234,11.155469271406648" fill="none" id="id25" stroke="none" /><text fill="#e1ed5e" style="font-size:6.75px; font-family:Arial;" text-anchor="middle"><textPath startOffset="22.145653131862478" xlink:href="#id25">January</textPath></text><path d="M 100.0 79.0 l 0.0 -12.621394202209814 a33.621394202209814,33.621394202209814 0 0,0 0.5771559396881402,0.0049541895958905915 l -0.21666301483928543 12.619534410808358" fill="#ff900d" stroke="none" /><path d="M 102.15924093988457 79.11130261209362 l 0.6594445479466877 -6.379527801515042 a27.4135202566235,27.4135202566235 0 0,0 0.46768000565178647,0.052404520120423785 l -0.7688604551992708 6.367267520887648" fill="#ff3905" stroke="none" /><path d="M 102.87502721639298 79.19773525538626 l 0.8581104014141446 -6.208859397414431 a27.267877509801593,27.267877509801593 0 0,0 0.46313177767195934,0.06806442249911154 l -0.964567284693786 6.193213901616436" fill="#ff3705" stroke="none" /><path d="M 103.58742460773223 79.30868818359171 l 1.0661900947454621 -6.149501137499842 a27.241243911132234,27.241243911132234 0 0,0 0.46007252524487857,0.08384053992178737 l -1.1715973535413944 6.130292423646688" fill="#ff3705" stroke="none" /><path d="M 104.64783097203109 79.52079915486377 l 4.904684788906484 -21.61094615499902 a43.16052631578947,43.16052631578947 0 0,0 0.7211257577082889,0.17018371529551665 l -5.274942700354657 21.523566296057275" fill="#f2ff19" stroke="none" /><path d="M 106.04205211174951 79.88797359093562 l 0.900170292043945 -2.996374137693567 a24.128668171557564,24.128668171557564 0 0,0 0.3956634714860954,0.1225775548677581 l -0.9514743964016705 2.9804799950191625" fill="#ff0901" stroke="none" /><path d="M 107.06938296918511 80.22567764915836 l 2.1773817130169837 -6.090524174698755 a27.46803492930973,27.46803492930973 0 0,0 0.4426419525153258,0.1625442561935282 l -2.2816128171864345 6.052249069496505" fill="#ff3a05" stroke="none" /><line stroke="#e1ed5e" stroke-width="0.3" x1="143.13028292997686" x2="145.6673583964461" y1="26.7553504044142" y2="22.446841604673864" /><path d="M 143.63769802327073 25.89364864446614 a86.0,86.0 0 0,1 29.32050498858742,28.57503671076993" fill="none" id="id26" stroke="none" /><text fill="#e1ed5e" style="font-size:6.75px; font-family:Arial;" text-anchor="middle"><textPath startOffset="20.669276256404974" xlink:href="#id26">February</textPath></text><path d="M 111.8722381534696 82.67804972795209 l 5.679477312207798 -8.286527131747004 a31.046043721040753,31.046043721040753 0 0,0 0.43701728207493756,0.3050720033608312 l -5.820889685456495 8.187810312581046" fill="#ff6d0a" stroke="none" /><path d="M 113.86319453409587 84.22622945171908 l 2.0711204166285127 -2.35655484379227 a24.13733812522276,24.13733812522276 0 0,0 0.3088831863636597,0.2762052499146275 l -2.1112686298155476 2.3206540639942554" fill="#ff0901" stroke="none" /><path d="M 114.13192950727249 84.46653392183569 l 4.628093582843841 -5.087085570210276 a27.877331590828085,27.877331590828085 0 0,0 0.35121485686389603,0.32507922817986323 l -4.714738211021703 5.0068885958980385" fill="#ff4006" stroke="none" /><path d="M 114.39649973595853 84.71141617570332 l 3.4242785296284155 -3.6364651337575817 a25.99495366520138,25.99495366520138 0 0,0 0.32224769846229856,0.30870600558903444 l -3.486198713956026 3.5771469978629673" fill="#ff2503" stroke="none" /><path d="M 115.8921839302757 86.27271002978787 l 4.726541681983776 -4.082674131481675 a27.245672448615895,27.245672448615895 0 0,0 0.3026935001507895,0.35657218206565233 l -4.795929745641677 4.000935166966471" fill="#ff3705" stroke="none" /><path d="M 117.42321728460499 88.27688183743584 l 2.656642160278254 -1.7875074076078 a24.20201972199121,24.20201972199121 0 0,0 0.22896904035801421,0.3466883103433284 l -2.6869356395569923 1.7416392189254126" fill="#ff0a01" stroke="none" /><line stroke="#e1ed5e" stroke-width="0.3" x1="172.87174338648825" x2="177.1583165268699" y1="56.24261187166439" y2="53.66864786411523" /><path d="M 173.72905801456457 55.72781907015455 a86.0,86.0 0 0,1 12.242430191666344,42.057860355516425" fill="none" id="id27" stroke="none" /><text fill="#e1ed5e" style="font-size:6.75px; font-family:Arial;" text-anchor="middle"><textPath startOffset="22.145653131862474" xlink:href="#id27">March</textPath></text><path d="M 118.18653347947321 89.5 l 5.440889226327489 -3.141298859451111 a27.28259771890222,27.28259771890222 0 0,0 0.2306894795438548,0.40760620611499127 l -5.494012070892719 3.0474358832370014" fill="#ff3705" stroke="none" /><path d="M 118.70294669586156 90.45014215332178 l 5.5763867713278765 -2.8473428187688596 a27.261265890459782,27.261265890459782 0 0,0 0.20923681915153436,0.4186138004915728 l -5.624443503691148 2.7511971621135367" fill="#ff3705" stroke="none" /><path d="M 119.4528033332814 92.08871423366111 l 17.9390692399921 -7.295663288638066 a40.36586966852798,40.36586966852798 0 0,0 0.2555377238037541,0.6441219935815963 l -18.06166563876198 6.986640277842904" fill="#ffe915" stroke="none" /><path d="M 120.77682067341334 96.94652285012252 l 2.491515260390847 -0.36616694323735766 a23.518278484020435,23.518278484020435 0 0,0 0.05527409544609389,0.39993581988809823 l -2.497433872392153 0.3233428151491738" fill="#ff0000" stroke="none" /><path d="M 120.93736805541906 98.37931529534042 l 3.1181554344385383 -0.24136495121877108 a24.127483069977426,24.127483069977426 0 0,0 0.02841992181943677,0.4132194259391598 l -3.1218393174230408 0.18780210112527718" fill="#ff0901" stroke="none" /><line stroke="#e1ed5e" stroke-width="0.3" x1="184.99686870605535" x2="189.99668451229388" y1="99.2704041080226" y2="99.22748670261217" /><path d="M 185.99683186730306 99.26182062694052 a86.0,86.0 0 0,1 -10.086455211305974,41.156179273409016" fill="none" id="id28" stroke="none" /><text fill="#e1ed5e" style="font-size:6.75px; font-family:Arial;" text-anchor="middle"><textPath startOffset="21.40746469413373" xlink:href="#id28">April</textPath></text><path d="M 120.93736805541906 101.62068470465957 l 3.1549083883435904 0.24420986229294675 a24.164345966496377,24.164345966496377 0 0,0 -0.03556344731918392,0.41330116548087753 l -3.150251318326666 -0.2983320751494816" fill="#ff0a01" stroke="none" /><path d="M 120.77682067341334 103.0534771498775 l 3.0938752063133483 0.4546931118840082 a24.127108827373174,24.127108827373174 0 0,0 -0.06373980936953798,0.4092553000064927 l -3.085613904805543 -0.5077365938219515" fill="#ff0901" stroke="none" /><path d="M 120.65975698304385 103.76489593502545 l 3.110008920680253 0.5667472251959123 a24.161227278127598,24.161227278127598 0 0,0 -0.077860944424968,0.4074013621348616 l -3.099821683973126 -0.6200511523640884" fill="#ff0a01" stroke="none" /><path d="M 120.43855184770803 104.8234425847677 l 3.0727639862048157 0.7251639340417817 a24.157172983248188,24.157172983248188 0 0,0 -0.09871365552696376,0.4027854006675682 l -3.059862804161556 -0.7778051593174494" fill="#ff0a01" stroke="none" /><path d="M 120.35273937422433 105.17358676015961 l 6.878933324257777 1.748597951166812 a28.0976981109659,28.0976981109659 0 0,0 -0.12284115484570136,0.46644787351096056 l -6.847902688607345 -1.8664263290505756" fill="#ff4306" stroke="none" /><path d="M 119.94978838288452 106.5578916946017 l 11.988952962780754 3.941006969730188 a33.620084353094924,33.620084353094924 0 0,0 -0.18493380336901374,0.546723929077114 l -11.919533737839375 -4.146232573281463" fill="#ff900d" stroke="none" /><path d="M 119.71291397450082 107.23885506374661 l 5.924471903617281 2.175548145494833 a27.311289651894974,27.311289651894974 0 0,0 -0.165388477579868,0.43871258611377156 l -5.886252742222973 -2.2769290118027636" fill="#ff3805" stroke="none" /><path d="M 119.4528033332814 107.91128576633889 l 3.856587017018733 1.5684403657229062 a25.163324224783178,25.163324224783178 0 0,0 -0.16616679692982866,0.3987398217331715 l -3.8290943755524185 -1.6344126968973554" fill="#ff1802" stroke="none" /><path d="M 119.0197475246899 108.90220220490707 l 5.695247257638149 2.665663286466991 a27.28821135796602,27.28821135796602 0 0,0 -0.20221960478444906,0.4225611987912188 l -5.6486483948937884 -2.763036987323313" fill="#ff3805" stroke="none" /><path d="M 118.70294669586154 109.54985784667822 l 5.939691010935023 3.032848552157466 a27.669190329095876,27.669190329095876 0 0,0 -0.21963003646936435,0.4211695542358121 l -5.88675290549071 -3.1343643494977806" fill="#ff3d05" stroke="none" /><line stroke="#e1ed5e" stroke-width="0.3" x1="174.33088141563837" x2="178.70328620479359" y1="141.23008692659167" y2="143.65538615756765" /><path d="M 175.20536237346943 141.71514677278685 a86.0,86.0 0 0,1 -30.301960400862466,31.631185727798858" fill="none" id="id29" stroke="none" /><text fill="#e1ed5e" style="font-size:6.75px; font-family:Arial;" text-anchor="middle"><textPath startOffset="22.145653131862474" xlink:href="#id29">May</textPath></text><path d="M 117.81537515405839 111.11811171558189 l 13.060181236333968 8.150519018300297 a36.39478139479625,36.39478139479625 0 0,0 -0.33532125319220435,0.52718070539791 l -12.918342291515874 -8.373513398376879" fill="#ffb610" stroke="none" /><path d="M 117.423217284605 111.72311816256416 l 3.1107491214057594 2.093050837204152 a24.749349530711655,24.749349530711655 0 0,0 -0.24019864007161762,0.3504569942878168 l -3.0743607445188212 -2.146142566562013" fill="#ff1202" stroke="none" /><path d="M 117.01052211995028 112.31430620078461 l 5.583743800072548 4.042199905209433 a27.893299275276227,27.893299275276227 0 0,0 -0.28411049438692654,0.385450450636198 l -5.513531286101793 -4.137456665114509" fill="#ff4006" stroke="none" /><path d="M 116.57777611688842 112.89097897827486 l 3.266217776338589 2.539830698422491 a25.1375014850897,25.1375014850897 0 0,0 -0.26781442533391253,0.3383747776023761 l -3.222136920363115 -2.59552541993955" fill="#ff1802" stroke="none" /><path d="M 116.1254893667686 113.45245675266167 l 9.151124214008187 7.634193290336672 a32.917381489841986,32.917381489841986 0 0,0 -0.3657049550804959,0.4307995175327942 l -9.018724695420575 -7.790159590319023" fill="#ff870c" stroke="none" /><path d="M 115.89218393027572 113.72728997021213 l 4.7574122067859665 4.1093393555535505 a27.286464892479508,27.286464892479508 0 0,0 -0.30923222609964796,0.35184950832460204 l -4.686168916727733 -4.1904011416894456" fill="#ff3805" stroke="none" /><path d="M 115.41159269507618 114.26474011684316 l 4.606174784765166 4.263406614581975 a27.276422715932043,27.276422715932043 0 0,0 -0.3210099405136364,0.34090143256953703 l -4.532309010515269 -4.3418495070960095" fill="#ff3705" stroke="none" /><path d="M 114.65682725009322 115.03919595460226 l 8.966053305140482 9.199960557259034 a33.84637638113342,33.84637638113342 0 0,0 -0.4195782393222608,0.40194646202697093 l -8.80680257995291 -9.352519149591584" fill="#ff930d" stroke="none" /><path d="M 114.39649973595853 115.28858382429668 l 4.605186612104256 4.890548594241129 a27.717529998811926,27.717529998811926 0 0,0 -0.3492015833522688,0.32321577227392606 l -4.52055525743802 -4.968882112647434" fill="#ff3e05" stroke="none" /><path d="M 112.7482090630111 116.68781488649013 l 4.263387631159553 5.580911265769402 a28.02303671141737,28.02303671141737 0 0,0 -0.38477899416100314,0.2887453306015577 l -4.166955648087783 -5.653275623634975" fill="#ff4206" stroke="none" /><path d="M 111.8722381534696 117.32195027204791 l 3.5450274624112095 5.1723010120872095 a27.270559581798743,27.270559581798743 0 0,0 -0.3884155045994208,0.26134328592769973 l -3.4557156697147855 -5.23239397207203" fill="#ff3705" stroke="none" /><path d="M 111.5731344415666 117.5232005979908 l 3.797602313280845 5.750053925581641 a27.890929072115956,27.890929072115956 0 0,0 -0.4017812749531308,0.26042976824097025 l -3.6983354060707048 -5.814397535526505" fill="#ff4006" stroke="none" /><line stroke="#e1ed5e" stroke-width="0.3" x1="143.1302829299769" x2="145.66735839644613" y1="173.24464959558577" y2="177.55315839532614" /><path d="M 143.63769802327073 174.10635135553383 a86.0,86.0 0 0,1 -40.68552437913181,11.842963189579606" fill="none" id="id30" stroke="none" /><text fill="#e1ed5e" style="font-size:6.75px; font-family:Arial;" text-anchor="middle"><textPath startOffset="21.407464694133747" xlink:href="#id30">June</textPath></text><path d="M 110.34350942703117 118.27599006163325 l 3.845236803213954 6.794164987804863 a28.806825472258524,28.806825472258524 0 0,0 -0.43245329290012186,0.23987455171238578 l -3.7280393221577377 -6.859172454950393" fill="#ff4d07" stroke="none" /><path d="M 109.71004243097381 118.62028667847754 l 2.3117734083983827 4.433130329353464 a25.99969407152192,25.99969407152192 0 0,0 -0.3975140004828783,0.20297348104594853 l -2.235332186201922 -4.472161762072249" fill="#ff2503" stroke="none" /><path d="M 109.06512990194946 118.94263497670748 l 4.050148613641866 8.463252884344985 a30.38244920993228,30.38244920993228 0 0,0 -0.47239107463183944,0.22110287535136744 l -3.9042688251385207 -8.531531991266887" fill="#ff6409" stroke="none" /><path d="M 108.07796709384702 119.3841803445677 l 1.5701506550895121 3.767789978939049 a25.08186408459071,25.08186408459071 0 0,0 -0.3988560293369892,0.16221127483017175 l -1.505240164562082 -3.7941885103485125" fill="#ff1702" stroke="none" /><path d="M 105.69591212413111 120.21278271476187 l 1.706455887563065 6.055609938487247 a27.29145479386955,27.29145479386955 0 0,0 -0.4520226463265622,0.12320078231172947 l -1.6022518403018078 -6.084011214943118" fill="#ff3805" stroke="none" /><path d="M 105.3480935250658 120.30758222061773 l 1.5930863123109464 6.0492082122661035 a27.255465130093857,27.255465130093857 0 0,0 -0.4534721546254548,0.1152708484167223 l -1.4890088644600943 -6.075664292518096" fill="#ff3705" stroke="none" /><path d="M 104.64783097203109 120.47920084513623 l 1.1058822725064328 4.872721341636489 a25.996637756920517,25.996637756920517 0 0,0 -0.4360472790250196,0.09503447495355716 l -1.0220725768622774 -4.890987274723765" fill="#ff2503" stroke="none" /><path d="M 103.2317021107853 120.74984581791261 l 0.961956428764913 6.1764503336513865 a27.250911845075443,27.250911845075443 0 0,0 -0.4628436240207884,0.06802207383550603 l -0.8557876991364392 -6.192053480785775" fill="#ff3705" stroke="none" /><path d="M 102.51750503828377 120.84855314841334 l 0.8241860456063667 6.8254427755660085 a27.87502376143519,27.87502376143519 0 0,0 -0.475553345511756,0.05328674427394916 l -0.7068967984938115 -6.838585280346929" fill="#ff4006" stroke="none" /><path d="M 101.80034050326958 120.92268563240118 l 0.5359953982586718 6.229078998008093 a27.252096946655577,27.252096946655577 0 0,0 -0.466440409524721,0.036105437672535164 l -0.428985993958715 -6.2373622026756825" fill="#ff3705" stroke="none" /><path d="M 100.72087961077811 120.9876233191556 l 0.23606516231290342 6.872779631054845 a27.876832600689085,27.876832600689085 0 0,0 -0.47840187215080887,0.012321935218336827 l -0.1180499760913507 -6.875819283623227" fill="#ff4006" stroke="none" /><line stroke="#e1ed5e" stroke-width="0.3" x1="101.45913802915013" x2="101.54496967792366" y1="184.9874750549273" y2="189.98673829345242" /><path d="M 101.47630435890484 185.9873277026323 a86.0,86.0 0 0,1 -42.54439059252881,-10.42667462771756" fill="none" id="id31" stroke="none" /><text fill="#e1ed5e" style="font-size:6.75px; font-family:Arial;" text-anchor="middle"><textPath startOffset="22.145653131862474" xlink:href="#id31">July</textPath></text><path d="M 100.0 121.0 l 7.652867607786899e-16 6.249040632054175 a27.249040632054175,27.249040632054175 0 0,0 -0.4677660169892583,-0.004015208672948189 l 0.1072730921404054 -6.248119821575662" fill="#ff3705" stroke="none" /><path d="M 98.91894614982273 120.97215588758144 l -0.19348063992554232 3.753472725787083 a24.758456100748486,24.758456100748486 0 0,0 -0.424260488587392,-0.025522457461685678 l 0.2578854806453807 -3.7495982905007055" fill="#ff1202" stroke="none" /><path d="M 98.19965949673042 120.92268563240118 l -0.5192315053106212 6.034257150979529 a27.05655518593323,27.05655518593323 0 0,0 -0.4624099747394698,-0.04379070537366612 l 0.6227410434351063 -6.024454690100679" fill="#ff3405" stroke="none" /><path d="M 97.48249496171623 120.84855314841334 l -0.5377028255405307 4.4529507452251496 a25.485297611975763,25.485297611975763 0 0,0 -0.4338837672378534,-0.05617494032458055 l 0.6140644146691782 -4.443064208700172" fill="#ff1d03" stroke="none" /><path d="M 96.76829788921471 120.74984581791261 l -1.1620612579901104 7.461266882796046 a28.55121777355352,28.55121777355352 0 0,0 -0.4836338322516291,-0.07958176305274675 l 1.2899725932948032 -7.440219121247631" fill="#ff4a06" stroke="none" /><path d="M 96.05791012581884 120.62667999033965 l -0.4952317729546358 2.591261901126904 a23.63816086491624,23.63816086491624 0 0,0 -0.3979129972063076,-0.0795937436446935 l 0.5396412556919015 -2.582378760819349" fill="#ff0200" stroke="none" /><path d="M 95.70440661134978 120.55596938700252 l -0.6568935523584557 3.143473446178008 a24.21137578709754,24.21137578709754 0 0,0 -0.4061026903606281,-0.08850819122628883 l 0.7107586593382202 -3.1317337968180006" fill="#ff0a01" stroke="none" /><path d="M 95.00130118170881 120.39639698878247 l -1.491889188716798 6.087416998398528 a27.267565640964712,27.267565640964712 0 0,0 -0.4536734810277431,-0.11532202480090614 l 1.5961679629699197 -6.060909741762358" fill="#ff3705" stroke="none" /><path d="M 94.30408787586889 120.21278271476187 l -1.6986736623726768 6.027993566713483 a27.262762860876798,27.262762860876798 0 0,0 -0.44936820948128975,-0.13080453661754846 l 1.8019018842355734 -5.9979453357934185" fill="#ff3705" stroke="none" /><path d="M 93.27111125876986 119.89276391827306 l -1.2677124060123177 3.7477664706429246 a24.956368064631103,24.956368064631103 0 0,0 -0.40464282270127816,-0.1407557786176229 l 1.3318610007586176 -3.7254522594567114" fill="#ff1502" stroke="none" /><path d="M 92.59220618246901 119.65005319985036 l -1.3260892639378423 3.517609321477313 a24.759266959724368,24.759266959724368 0 0,0 -0.39641677677080306,-0.15334252525723177 l 1.3862783032021737 -3.4943269080820407" fill="#ff1202" stroke="none" /><path d="M 92.25597844496254 119.51999308798841 l -2.305058572347865 5.810253378022924 a27.25078709754069,27.25078709754069 0 0,0 -0.4333466085844194,-0.17623829314717396 l 2.404459642122725 -5.769827828296458" fill="#ff3705" stroke="none" /><path d="M 90.93487009805054 118.94263497670748 l -3.236338612197105 6.762702978882872 a28.497202091006294,28.497202091006294 0 0,0 -0.43945365818475773,-0.21495880552180643 l 3.351952519643932 -6.7061504232638445" fill="#ff4906" stroke="none" /><path d="M 90.6110303473126 118.78422872680471 l -4.198348557212886 8.3995094766298 a30.3903083046216,30.3903083046216 0 0,0 -0.46464289144503085,-0.23724997108350857 l 4.341918670371499 -8.326201553873457" fill="#ff6409" stroke="none" /><path d="M 89.97174638481275 118.45085714620012 l -2.9959958711049355 5.51229495678549 a27.273865391469645,27.273865391469645 0 0,0 -0.4094402179099495,-0.22710958694643096 l 3.0901802771709876 -5.46005245440591" fill="#ff3705" stroke="none" /><line stroke="#e1ed5e" stroke-width="0.3" x1="58.13341422392154" x2="55.67067388415222" y1="173.97424548756322" y2="178.32567169271397" /><path d="M 57.64086615596768 174.84453072859336 a86.0,86.0 0 0,1 -31.369924170532247,-30.572349798747897" fill="none" id="id32" stroke="none" /><text fill="#e1ed5e" style="font-size:6.75px; font-family:Arial;" text-anchor="middle"><textPath startOffset="22.145653131862474" xlink:href="#id32">August</textPath></text><path d="M 89.03521579738668 117.91015095944536 l -5.385862398394264 8.797401464504084 a31.31512415349887,31.31512415349887 0 0,0 -0.45606134654969727,-0.28461601039836026 l 5.536087873733673 -8.703649657264176" fill="#ff710a" stroke="none" /><path d="M 88.1277618465304 117.32195027204791 l -2.156030608231668 3.1457130911653617 a24.813656884875847,24.813656884875847 0 0,0 -0.34928756100472347,-0.2438298446203278 l 2.209713260410157 -3.1082384307399047" fill="#ff1302" stroke="none" /><path d="M 87.54013794807813 116.9041958592261 l -2.2331012714596 3.0296307542519996 a24.763695497208033,24.763695497208033 0 0,0 -0.34002559905446905,-0.2551615485820766 l 2.2847798594248356 -2.9908501784059083" fill="#ff1302" stroke="none" /><path d="M 86.96720088162412 116.46651593811092 l -8.249280292623885 10.422696167004469 a34.292224070333845,34.292224070333845 0 0,0 -0.4584531185976654,-0.369297380148794 l 8.426984181576811 -10.279550493062263" fill="#ff9a0e" stroke="none" /><path d="M 86.68645165197938 116.24036423190432 l -5.928143302379596 7.231370926285212 a30.350700962338124,30.350700962338124 0 0,0 -0.4000882382167874,-0.33376783795172693 l 6.051405874758276 -7.128540904421615" fill="#ff6309" stroke="none" /><path d="M 85.60350026404147 115.28858382429668 l -2.688803314413711 2.8554159423060472 a24.922124866341928,24.922124866341928 0 0,0 -0.3089483244480489,-0.2959655061273944 l 2.7374241247270743 -2.80883830587307" fill="#ff1502" stroke="none" /><path d="M 85.34317274990678 115.03919595460226 l -4.65202333602296 4.773385763647239 a27.665323155518593,27.665323155518593 0 0,0 -0.33726410762040004,-0.3343815257311695 l 4.733279363773323 -4.69282422768741" fill="#ff3d05" stroke="none" /><path d="M 84.83555147118756 114.52719865689866 l -4.992899632636084 4.7830849041063646 a27.914256861114414,27.914256861114414 0 0,0 -0.328516463752962,-0.34887310011917083 l 5.074271930125299 -4.696670344042704" fill="#ff4106" stroke="none" /><path d="M 84.58840730492382 114.26474011684316 l -4.562734124590438 4.223198588055646 a27.217230010692646,27.217230010692646 0 0,0 -0.3144267893956868,-0.34561012101217775 l 4.634558614828005 -4.144250891485794" fill="#ff3705" stroke="none" /><path d="M 84.1078160697243 113.72728997021213 l -4.742448970757992 4.096414468656326 a27.266692408221456,27.266692408221456 0 0,0 -0.3029270273341627,-0.35684727650046727 l 4.812070561599266 -4.014400409706305" fill="#ff3705" stroke="none" /><path d="M 83.64595745247003 113.17365903436017 l -4.920687947457174 3.9637578932480535 a27.318587382677915,27.318587382677915 0 0,0 -0.29105166975985375,-0.3677342768336711 l 4.9880060478585895 -3.878703672499702" fill="#ff3805" stroke="none" /><path d="M 83.20337586046588 112.60449989151573 l -7.578037345690131 5.686700500538957 a30.474450516811217,30.474450516811217 0 0,0 -0.3104011152304007,-0.4211187270703021 l 7.674540480504362 -5.555775464199775" fill="#ff6509" stroke="none" /><path d="M 82.78059297857968 112.02048342749411 l -5.138255098036689 3.5869011154306625 a27.266380539384578,27.266380539384578 0 0,0 -0.264627056848832,-0.3860987844178524 l 5.199071891700846 -3.498167595942759" fill="#ff3705" stroke="none" /><path d="M 82.37810715431573 111.42229804090323 l -5.509484693522821 3.571181414635843 a27.565649875252465,27.565649875252465 0 0,0 -0.25397455093792126,-0.3992901781260654 l 5.569976936086632 -3.476077561831106" fill="#ff3c05" stroke="none" /><path d="M 81.99639281039703 110.81064883170644 l -8.031037630324677 4.822407346556567 a30.367666627064274,30.367666627064274 0 0,0 -0.26452593276689845,-0.4492228647308667 l 8.112637273221345 -4.6838333135321415" fill="#ff6309" stroke="none" /><line stroke="#e1ed5e" stroke-width="0.3" x1="26.387840678322732" x2="22.057713659400548" y1="142.50000000000003" y2="145.00000000000006" /><path d="M 25.521815274538298 143.00000000000003 a86.0,86.0 0 0,1 -11.493303480769221,-40.785679425670985" fill="none" id="id33" stroke="none" /><text fill="#e1ed5e" style="font-size:6.75px; font-family:Arial;" text-anchor="middle"><textPath startOffset="21.40746469413373" xlink:href="#id33">September</textPath></text><path d="M 81.63589988554817 110.18625677009913 l -5.469194245206384 3.0336698536825475 a27.25421765474635,27.25421765474635 0 0,0 -0.22342572913621755,-0.41107817664630875 l 5.52046532395793 -2.939336843561652" fill="#ff3705" stroke="none" /><path d="M 81.29705330413844 109.54985784667822 l -5.594440881094289 2.8565613758562147 a27.28153736485684,27.28153736485684 0 0,0 -0.20939240762785072,-0.41892508166879083 l 5.642653201933876 -2.7601044380236712" fill="#ff3705" stroke="none" /><path d="M 80.83023694016515 108.57439118712176 l -6.907389228952905 3.0895873436666186 a28.566873589164786,28.566873589164786 0 0,0 -0.19638517347522497,-0.4493677092580785 l 6.959408284445098 -2.9705575646326907" fill="#ff4a06" stroke="none" /><path d="M 80.41425534168474 107.57618678355246 l -13.455164579853362 5.2047467093434925 a35.42674052512772,35.42674052512772 0 0,0 -0.21453306510780487,-0.5690744432598627 l 13.542528328775603 -4.973003985889485" fill="#ffa90f" stroke="none" /><path d="M 80.16572619554312 106.89939002012753 l -7.5054239967785925 2.6107760702871796 a28.946542711179756,28.946542711179756 0 0,0 -0.1592260799152092,-0.4707236126490499 l 7.5491354982661685 -2.481550783163968" fill="#ff4f07" stroke="none" /><path d="M 79.64726062577567 105.17358676015961 l -6.653450023004786 1.6912809777338909 a27.8650439586551,27.8650439586551 0 0,0 -0.11386515932497171,-0.4646087066267784 l 6.681502708846051 -1.5768164464990129" fill="#ff4006" stroke="none" /><path d="M 79.56144815229197 104.8234425847677 l -7.98650315161123 1.884792997659615 a29.20589283592729,29.20589283592729 0 0,0 -0.11096728699132198,-0.4889423413222952 l 8.017681300160218 -1.7474163223982937" fill="#ff5307" stroke="none" /><path d="M 79.34024301695615 103.76489593502545 l -10.464386592112488 1.9069598241409076 a31.636723298087205,31.636723298087205 0 0,0 -0.09277873229811348,-0.5351230729068562 l 10.495580141902837 -1.7270437183134586" fill="#ff750a" stroke="none" /><path d="M 79.0935383218832 101.97986365728391 l -62.7193850343504 5.9395909718517395 a84.0,84.0 0 0,0 -0.12362550920903681,-1.4367158104973519 l 62.812104166257186 -4.862054113978725" fill="#4dd2ff" stroke="none" /><line stroke="#e1ed5e" stroke-width="0.3" x1="15.003131293944662" x2="10.003315487706104" y1="100.72959589197737" y2="100.7725132973878" /><path d="M 14.003168132696942 100.73817937305945 a86.0,86.0 0 0,1 10.791469493833604,-42.45332614584628" fill="none" id="id34" stroke="none" /><text fill="#e1ed5e" style="font-size:6.75px; font-family:Arial;" text-anchor="middle"><textPath startOffset="22.145653131862435" xlink:href="#id34">October</textPath></text><path d="M 79.03789590574601 98.7389718711861 l -6.259430720909546 -0.37655180863225185 a27.27074670310087,27.27074670310087 0 0,0 0.032122392833600605,-0.46705254190438045 l 6.252044366910882 0.4839477746909573" fill="#ff3705" stroke="none" /><path d="M 79.13060592940154 97.66154086499901 l -7.4549135264427235 -0.8353386100994991 a28.501568254722585,28.501568254722585 0 0,0 0.058656110395084594,-0.4857567379030226 l 7.439475329787971 0.9631890249259579" fill="#ff4906" stroke="none" /><path d="M 79.22317932658666 96.9465228501225 l -8.031177961504572 -1.180306591539017 a29.11744683378876,29.11744683378876 0 0,0 0.07692345252771082,-0.49390374638944 l 8.009733016838593 1.317998519859907" fill="#ff5207" stroke="none" /><path d="M 79.407916724674 95.88100663000787 l -24.771478625370122 -4.954989490794297 a46.26218664607343,46.26218664607343 0 0,0 0.1624514069310411,-0.7773887902363404 l 24.682769507614715 5.379494732316046" fill="#cdff1d" stroke="none" /><path d="M 79.56144815229197 95.17655741523228 l -6.748704434209641 -1.5926758707040123 a27.934091719139836,27.934091719139836 0 0,0 0.11414730975904673,-0.46575997668187746 l 6.720369597934296 1.7082916719940073" fill="#ff4106" stroke="none" /><path d="M 79.64726062577567 94.8264132398404 l -3.0484375108809103 -0.7749008944437693 a24.14538434121421,24.14538434121421 0 0,0 0.105561917739825,-0.40083579575044587 l 3.0346861123363595 0.8271171945669998" fill="#ff0901" stroke="none" /><path d="M 79.83685265289637 94.1308016681162 l -8.442374713003005 -2.4574522384677646 a29.792767613163832,29.792767613163832 0 0,0 0.14715311876733483,-0.48982487341836317 l 8.398945274232041 2.602014715476851" fill="#ff5b08" stroke="none" /><path d="M 80.05021161711548 93.44210830539832 l -13.049666880572175 -4.289684702963713 a34.736637162884634,34.736637162884634 0 0,0 0.19107561894592087,-0.5648811155011291 l 12.97410584005389 4.513067492939004" fill="#ffa00e" stroke="none" /><path d="M 80.28708602549916 92.7611449362534 l -7.043964939118223 -2.5866414947250655 a28.503876084115483,28.503876084115483 0 0,0 0.17261040144071518,-0.45786959717084086 l 6.998523853863071 2.707179372090051" fill="#ff4906" stroke="none" /><path d="M 80.5471966667186 92.08871423366112 l -8.752663711978139 -3.559632134030465 a30.448814898419865,30.448814898419865 0 0,0 0.20106969956683166,-0.4824940821064113 l 8.690268167874828 3.70935872557814" fill="#ff6509" stroke="none" /><path d="M 80.83023694016515 91.42560881287825 l -15.488801873975095 -6.927944068622772 a37.9675983129381,37.9675983129381 0 0,0 0.27122521805162064,-0.5926760498013698 l 15.367592191068429 7.192809100638812" fill="#ffca12" stroke="none" /><path d="M 81.1358732173502 90.77261029715801 l -6.658082005789057 -3.2568015497755023 a28.411937151003922,28.411937151003922 0 0,0 0.2180684998010137,-0.4362830778988501 l 6.6011935927762995 3.3706164838381225" fill="#ff4806" stroke="none" /><path d="M 81.46374523516351 90.13048839642627 l -6.645754949532635 -3.538490186989963 a28.5290750861352,28.5290750861352 0 0,0 0.23387680701195318,-0.43030698280823687 l 6.584032792905331 3.6520520032728196" fill="#ff4906" stroke="none" /><line stroke="#e1ed5e" stroke-width="0.3" x1="26.387840678322718" x2="22.05771365940052" y1="57.49999999999999" y2="54.99999999999999" /><path d="M 25.521815274538284 56.99999999999999 a86.0,86.0 0 0,1 29.574782752854787,-30.34633250058573" fill="none" id="id35" stroke="none" /><text fill="#e1ed5e" style="font-size:6.75px; font-family:Arial;" text-anchor="middle"><textPath startOffset="21.40746469413373" xlink:href="#id35">November</textPath></text><path d="M 81.81346652052679 89.5 l -5.410099384093619 -3.1235223357490804 a27.24704467149816,27.24704467149816 0 0,0 0.23734289484215823,-0.4030601235549398 l 5.355682779121681 3.2159336275975927" fill="#ff3705" stroke="none" /><path d="M 82.18462484594161 88.88188828441811 l -17.13018062848543 -10.69049965485636 a41.19232208625401,41.19232208625401 0 0,0 0.3795231221208697,-0.5966733850890567 l 16.94413981473867 10.98298671462409" fill="#fff417" stroke="none" /><path d="M 82.576782715395 88.27688183743585 l -5.1839091179560794 -3.4879654050741853 a27.248105025543545,27.248105025543545 0 0,0 0.26444968840666727,-0.3858399985600131 l 5.123269692734099 3.5764401387042333" fill="#ff3705" stroke="none" /><path d="M 82.78059297857968 87.97951657250589 l -12.333704590223869 -8.60988368774649 a36.04162112391588,36.04162112391588 0 0,0 0.3585024036804399,-0.5042785272625571 l 12.184087088013458 8.820339441718568" fill="#ffb110" stroke="none" /><path d="M 83.2033758604659 87.39550010848427 l -4.998128161516053 -3.7506885518340987 a27.248915884519427,27.248915884519427 0 0,0 0.2839700647888523,-0.371725930370147 l 4.9330061193728945 3.8359353954451296" fill="#ff3705" stroke="none" /><path d="M 83.8745106332314 86.54754324733833 l -5.124301953965802 -4.274874942112748 a27.673306997742664,27.673306997742664 0 0,0 0.30744442706237973,-0.36216876202146736 l 5.050162963396308 4.362210486583772" fill="#ff3d05" stroke="none" /><path d="M 84.10781606972428 86.27271002978789 l -6.213424757318473 -5.36700831842976 a29.210446120945704,29.210446120945704 0 0,0 0.33103633302946317,-0.37665857948603 l 6.1203773603304175 5.4728791757270905" fill="#ff5307" stroke="none" /><path d="M 84.58840730492382 85.73525988315684 l -7.454994053441849 -6.900231199266943 a31.158254128549366,31.158254128549366 0 0,0 0.3666943208968431,-0.38941666139318926 l 7.335443898808735 7.027189320604643" fill="#ff6f0a" stroke="none" /><path d="M 85.34317274990677 84.96080404539775 l -9.41492625802071 -9.660543750462972 a34.48951229654271,34.48951229654271 0 0,0 0.42755090475605323,-0.40958409516355654 l 9.247702867399356 9.820739975932097" fill="#ff9c0e" stroke="none" /><path d="M 85.60350026404147 84.71141617570332 l -5.190060448947674 -5.51166434079195 a28.570678388974695,28.570678388974695 0 0,0 0.359950043575549,-0.3331643865914018 l 5.094680634058171 5.599946473515717" fill="#ff4a06" stroke="none" /><path d="M 86.40962598614128 83.9905735841838 l -4.5466073929279345 -5.355892076587434 a28.025469288345015,28.025469288345015 0 0,0 0.36943662838909896,-0.30819717487119164 l 4.453996430376926 5.433151435370507" fill="#ff4206" stroke="none" /><path d="M 86.68645165197937 83.75963576809568 l -3.9677679924321074 -4.840031800715953 a27.25852144469526,27.25852144469526 0 0,0 0.3644194712787244,-0.29355053016128846 l 3.884097750798137 4.90743062467064" fill="#ff3705" stroke="none" /><path d="M 87.25179093698888 83.31218511350988 l -8.381565027803708 -10.971737673246974 a34.806870024949504,34.806870024949504 0 0,0 0.47792652081267223,-0.3586449711378125 l 8.191985518080283 11.114001671648788" fill="#ffa00e" stroke="none" /><path d="M 87.83215693770416 82.88440491214696 l -3.625090585611216 -5.099143891193711 a27.25640073660449,27.25640073660449 0 0,0 0.38367265974644205,-0.2678333140233952 l 3.5370228346910086 5.160622021022232" fill="#ff3705" stroke="none" /><path d="M 88.12776184653039 82.6780497279521 l -2.1250347149891256 -3.1004891566009944 a24.758830343352738,24.758830343352738 0 0,0 0.3526408599082712,-0.2372725084078317 l 2.071497566983865 3.136511339065936" fill="#ff1202" stroke="none" /><line stroke="#e1ed5e" stroke-width="0.3" x1="56.869717070023135" x2="54.33264160355391" y1="26.7553504044142" y2="22.446841604673864" /><path d="M 56.362301976729285 25.89364864446614 a86.0,86.0 0 0,1 42.16139366436587,-11.88097634709845" fill="none" id="id36" stroke="none" /><text fill="#e1ed5e" style="font-size:6.75px; font-family:Arial;" text-anchor="middle"><textPath startOffset="22.145653131862474" xlink:href="#id36">December</textPath></text><path d="M 89.34428304082924 81.90426304109057 l -6.751511385185409 -11.465542353417122 a34.30569680408696,34.30569680408696 0 0,0 0.510023663692065,-0.29446229952569125 l 6.553695253632943 11.579751550218988" fill="#ff9a0e" stroke="none" /><path d="M 89.97174638481275 81.54914285379989 l -1.4997999711462644 -2.7594630209178295 a24.140706308661045,24.140706308661045 0 0,0 0.3658020353441832,-0.1947689799391958 l 1.4522091200155192 2.7848024685796005" fill="#ff0901" stroke="none" /><path d="M 90.61103034731259 81.2157712731953 l -3.691698917644086 -7.38587080635361 a29.257101698942616,29.257101698942616 0 0,0 0.4511720248333495,-0.2206908458644726 l 3.564366643548684 7.4481554023152965" fill="#ff5407" stroke="none" /><path d="M 91.5904679813234 80.7573450057729 l -7.519472425135186 -17.20602446059193 a39.77737317333967,39.77737317333967 0 0,0 0.6280372260064798,-0.2680717463802631 l 7.2230001239582755 17.332570856631598" fill="#ffe215" stroke="none" /></svg>