<?xml version="1.0" encoding="utf-8" ?>
<svg baseProfile="full" height="200mm" version="1.1" viewBox="0,0,200,200" width="200mm" xmlns="http://www.w3.org/2000/svg" xmlns:ev="http://www.w3.org/2001/xml-events" xmlns:xlink="http://www.w3.org/1999/xlink"><defs /><rect fill="#1a1a1a" height="200" width="200" x="0" y="0" /><text alignment-baseline="middle" fill="#e1ed5e" style="dominant-baseline: central; font-size:9.0px; font-family:Arial;" text-anchor="middle" x="100.0" y="100.0">2022</text><line stroke="#e1ed5e" stroke-width="0.3" x1="100.0" x2="100.0" y1="15.0" y2="10.0" /><path d="M 100.0 14.0 a86.0,86.0 0 0,1 42.46469731375804,11.215312516191453" fill="none" id="id1" stroke="none" /><text fill="#e1ed5e" style="font-size:6.75px; font-family:Arial;" text-anchor="middle"><textPath startOffset="22.20632615414155" xlink:href="#id1">January</textPath></text><path d="M 105.01212808612495 79.60689891045804 l 4.599772338861406 -18.715328236514065 a40.272296608598964,40.272296608598964 0 0,0 0.6717632159158299,0.17124740116888343 l -4.92124444346226 18.633377839176312" fill="#ffad10" stroke="none" /><path d="M 105.71112130821622 79.79150937346287 l 4.976823887883398 -17.61021933530432 a39.2999617772424,39.2999617772424 0 0,0 0.6494033895142153,0.18957865721265404 l -5.279217495121041 17.52194234917296" fill="#ff9f0e" stroke="none" /><path d="M 107.08798089147638 80.2323363322302 l 6.221358320469793 -17.350740742489744 a39.43240363232024,39.43240363232024 0 0,0 0.6369603928263181,0.2345978882078144 l -6.519101039068688 17.241079586475607" fill="#ffa10e" stroke="none" /><path d="M 108.09893153111575 80.62456947434976 l 12.664242650750783 -30.297225343476182 a53.837553280207565,53.837553280207565 0 0,0 0.8519568283734412,0.36476345209696814 l -13.18388323691454 30.074742363416423" fill="#99ff23" stroke="none" /><path d="M 108.76106565485865 80.91482961587045 l 4.960521137639952 -10.806036027527304 a32.89021381578947,32.89021381578947 0 0,0 0.5124949807400622,0.24062326526489672 l -5.145794329679612 10.719047779622404" fill="#ff3c05" stroke="none" /><line stroke="#e1ed5e" stroke-width="0.3" x1="143.23703022742887" x2="145.7803849466894" y1="26.81831364943548" y2="22.513508569990506" /><path d="M 143.74570117128098 25.957352633546492 a86.0,86.0 0 0,1 28.547481713284135,27.462654790039103" fill="none" id="id2" stroke="none" /><text fill="#e1ed5e" style="font-size:6.75px; font-family:Arial;" text-anchor="middle"><textPath startOffset="19.985693538727396" xlink:href="#id2">February</textPath></text><path d="M 111.60114157652 82.49532879139004 l 18.19665715683307 -27.456479047789585 a53.938982579688656,53.938982579688656 0 0,0 0.7695174271124781,0.5195816018381221 l -18.66657927835209 27.139185533652793" fill="#98ff23" stroke="none" /><path d="M 112.19680574252982 82.90503203632743 l 10.669520868520253 -14.95433487139051 a39.37037852112676,39.37037852112676 0 0,0 0.5482881712108437,0.3983546739869602 l -10.925354356084886 14.768460962586875" fill="#ffa00e" stroke="none" /><path d="M 112.77801427241765 83.33499621200491 l 19.982445676995226 -26.06097675280851 a53.84010725537435,53.84010725537435 0 0,0 0.7306037045002974,0.5702477800064163 l -20.428081936654955 25.71315058357887" fill="#99ff23" stroke="none" /><path d="M 113.6212207817346 84.01681056812373 l 12.29942468613865 -14.432189141611957 a39.962171052631575,39.962171052631575 0 0,0 0.5197103206672595,0.4506876687721058 l -12.546028805452673 14.218336479420179" fill="#ffa90f" stroke="none" /><path d="M 114.16331599549186 84.49514656593476 l 12.421774082406445 -13.59835412837541 a39.41780948851,39.41780948851 0 0,0 0.49702500907781577,0.4619305781955158 l -12.654006975279108 13.382518964105254" fill="#ffa10e" stroke="none" /><path d="M 114.68862486808459 84.99185889309783 l 22.96977608127009 -23.469429147903735 a53.83937754818384,53.83937754818384 0 0,0 0.6567486223390444,0.6539283350406957 l -23.370360503776457 23.07056496221292" fill="#99ff23" stroke="none" /><path d="M 116.15771136456269 86.58626213691792 l 14.242239535704522 -11.82355987210907 a39.51048230170497,39.51048230170497 0 0,0 0.4299145135584736,0.5270243599584058 l -14.443652541339405 11.576651342542565" fill="#ffa20f" stroke="none" /><path d="M 116.60985879189232 87.15038557335679 l 30.30083348456079 -23.441140106054316 a59.30962750185322,59.30962750185322 0 0,0 0.6177353576667097,0.8128673205646809 l -30.699844782451613 22.9160880096086" fill="#57ff2a" stroke="none" /><path d="M 117.04232023915458 87.72973835380427 l 14.82152446623704 -10.671315914976716 a39.263476417716824,39.263476417716824 0 0,0 0.3901805729050166,0.5518827496836944 l -15.00301765894594 10.41460666496123" fill="#ff9e0e" stroke="none" /><path d="M 117.65298651832404 88.62581576622439 l 23.001778457099263 -14.82052147969218 a48.362925083395105,48.362925083395105 0 0,0 0.44487535671124745,0.7036859772691902 l -23.253481410056466 14.422387854708784" fill="#dfff1b" stroke="none" /><line stroke="#e1ed5e" stroke-width="0.3" x1="172.23445277983987" x2="176.4835382374775" y1="55.19839476539836" y2="52.563006222186495" /><path d="M 173.08426987136738 54.67131705675599 a86.0,86.0 0 0,1 12.851231095245387,41.99856678651699" fill="none" id="id3" stroke="none" /><text fill="#e1ed5e" style="font-size:6.75px; font-family:Arial;" text-anchor="middle"><textPath startOffset="22.20632615414155" xlink:href="#id3">March</textPath></text><path d="M 118.21658344932153 89.55222093294921 l 10.461728003103978 -6.000127473962728 a33.06023559117865,33.06023559117865 0 0,0 0.2788746720023449,0.4960869238200486 l -10.563460316398757 5.819157040207886" fill="#ff3f05" stroke="none" /><path d="M 118.73160827565052 90.50648371742162 l 16.304348875355846 -8.263337522717544 a39.27880026871756,39.27880026871756 0 0,0 0.3004640936367837,0.6057172782042407 l -16.44417298194604 7.981460656014354" fill="#ff9f0e" stroke="none" /><path d="M 119.47837535516314 92.15188598940014 l 30.45447686804726 -12.270541163498851 a53.83353989065975,53.83353989065975 0 0,0 0.3389114860117142,0.8624927650569029 l -30.661181903940673 11.744499393546164" fill="#99ff23" stroke="none" /><path d="M 119.85752413597 93.16781622104841 l 10.41671306704055 -3.5839764091089195 a32.01602460155671,32.01602460155671 0 0,0 0.17481162016590854,0.5226644938530736 l -10.47686198097823 3.404138812333532" fill="#ff2e04" stroke="none" /><path d="M 120.18372546131832 94.20196356495316 l 26.300023614831797 -7.555022260564741 a48.36365479058561,48.36365479058561 0 0,0 0.22296388607096085,0.8021197280432775 l -26.426174271469122 7.101191229102511" fill="#dfff1b" stroke="none" /><path d="M 120.45610955862082 95.25157060432595 l 18.395713794145216 -4.27015449268131 a39.88482209043736,39.88482209043736 0 0,0 0.14948377961631168,0.6701064731962927 l -18.466491960763562 3.952869849935053" fill="#ffa80f" stroke="none" /><path d="M 120.6074358757038 95.95851677861258 l 26.85177346308666 -5.266108436300288 a48.36328993699036,48.36328993699036 0 0,0 0.15318329616650003,0.8183112933641384 l -26.93844248316302 4.803119065473587" fill="#dfff1b" stroke="none" /><path d="M 120.78858239683441 97.02765380044208 l 18.26995086571312 -2.6122329067556542 a39.455754262416605,39.455754262416605 0 0,0 0.09034240595846779,0.6731558596298955 l -18.312209270729426 2.2973587050610944" fill="#ffa10e" stroke="none" /><path d="M 120.98425023603335 99.18683210126433 l 32.814748384126915 -1.2716156017449494 a53.83937754818384,53.83937754818384 0 0,0 0.027915218717262325,0.9263702072483372 l -32.83177529729982 0.706575247071613" fill="#99ff23" stroke="none" /><line stroke="#e1ed5e" stroke-width="0.3" x1="184.98032266829074" x2="189.97916517819016" y1="98.17113171792111" y2="98.06355123074" /><path d="M 185.9800911702706 98.14961562048488 a86.0,86.0 0 0,1 -9.607161424134198,41.387399972396054" fill="none" id="id4" stroke="none" /><text fill="#e1ed5e" style="font-size:6.75px; font-family:Arial;" text-anchor="middle"><textPath startOffset="21.466115282336823" xlink:href="#id4">April</textPath></text><path d="M 120.9764740272857 100.99374915477107 l 21.91516249333021 1.0382190150779815 a42.939741243513716,42.939741243513716 0 0,0 -0.041331850594127265,0.7380079575248781 l -21.894044291848555 -1.415298688938283" fill="#ffd413" stroke="none" /><path d="M 120.89721153311464 102.0752229133903 l 18.24669593251499 1.8120102499233741 a39.33644713676797,39.33644713676797 0 0,0 -0.07271192118927952,0.6732220849970892 l -18.212801709824657 -2.125828656805255" fill="#ff9f0e" stroke="none" /><path d="M 120.81339534386255 102.79330883721812 l 27.14979363910535 3.6436995140787607 a48.39320793180133,48.39320793180133 0 0,0 -0.11790878134197857,0.8246537420851751 l -27.083050806746773 -4.1104987281443455" fill="#dfff1b" stroke="none" /><path d="M 120.70491114924044 103.5080841355445 l 12.663819706110901 2.1456621902979394 a33.84430596738325,33.84430596738325 0 0,0 -0.10226388667578536,0.573550185154264 l -12.625009377095928 -2.3633311261854213" fill="#ff4b07" stroke="none" /><path d="M 120.32669344350535 105.2749913415812 l 18.211526955638735 4.726083328553437 a39.81477020014826,39.81477020014826 0 0,0 -0.1778619134517139,0.6618903462097023 l -18.127476965845243 -5.038864607938687" fill="#ffa70f" stroke="none" /><path d="M 120.02730092923936 106.31721596034902 l 17.549056981436255 5.535502923928653 a39.4013910767235,39.4013910767235 0 0,0 -0.20959241447663404,0.6450591235515534 l -17.451172315943374 -5.836760947458001" fill="#ffa00e" stroke="none" /><path d="M 119.67450827220406 107.3425965602758 l 25.654614439726057 9.574393480850723 a48.38299203113417,48.38299203113417 0 0,0 -0.2979141733336869,0.7777598988481285 l -25.48600598679886 -10.014576946531996" fill="#dfff1b" stroke="none" /><path d="M 118.97047184881838 109.00673069616215 l 16.551811395752807 7.858408001828328 a39.32258270014825,39.32258270014825 0 0,0 -0.2955686486055703,0.6089589606693815 l -16.414089490532525 -8.142155918462985" fill="#ff9f0e" stroke="none" /><line stroke="#e1ed5e" stroke-width="0.3" x1="174.80103733775053" x2="179.2010983576182" y1="140.37084112569926" y2="142.7455964860345" /><path d="M 175.68104954172406 140.8457921977663 a86.0,86.0 0 0,1 -30.038265399797805,32.042727171017184" fill="none" id="id5" stroke="none" /><text fill="#e1ed5e" style="font-size:6.75px; font-family:Arial;" text-anchor="middle"><textPath startOffset="22.206326154141568" xlink:href="#id5">May</textPath></text><path d="M 118.48025628344425 109.97397251340804 l 28.916391096586697 15.606455103260094 a53.85907964232765,53.85907964232765 0 0,0 -0.44734733594532833,0.8120653555581684 l -28.64346735118986 -16.101890977216065" fill="#99ff23" stroke="none" /><path d="M 117.94076556474637 110.91462005526583 l 6.981512934103778 4.247341665084854 a29.171990826538178,29.171990826538178 0 0,0 -0.26468075160653964,0.42674964777576735 l -6.907367542829276 -4.366887644225895" fill="#ff0000" stroke="none" /><path d="M 117.55443506779139 111.5257021239791 l 22.894715597790526 15.031966062952977 a48.388464835063004,48.388464835063004 0 0,0 -0.4631395793233424,0.6923308314850872 l -22.632572913056464 -15.42383380864387" fill="#dfff1b" stroke="none" /><path d="M 116.498646956653 112.99209946851258 l 20.915784362596703 16.470438552613455 a47.62227228502594,47.62227228502594 0 0,0 -0.512692511947187,0.6396627387316055 l -20.629173938594665 -16.82802912492331" fill="#e9ff1a" stroke="none" /><path d="M 115.07121518719521 114.62390073753431 l 19.674921897308078 19.09096919334213 a48.41473429392142,48.41473429392142 0 0,0 -0.58549407901841,0.5931024108815047 l -19.343387193234133 -19.4268120982043" fill="#dfff1b" stroke="none" /><path d="M 114.55890576462653 115.13401014063108 l 12.655148738244131 13.155051102887215 a39.253990224240184,39.253990224240184 0 0,0 -0.49098174233721154,0.46425388291502195 l -12.426831161516112 -13.370939622548159" fill="#ff9e0e" stroke="none" /><path d="M 113.75828350139079 115.86535959552629 l 13.858359970521557 15.980762739359575 a42.15275203854708,42.15275203854708 0 0,0 -0.5522703496710262,0.4706567732390118 l -13.581224144273483 -16.216943902821534" fill="#ffc912" stroke="none" /><path d="M 112.63410532772338 116.77436683061366 l 11.190130226707453 14.857193638653408 a39.59987143254262,39.59987143254262 0 0,0 -0.5480151337042583,0.4054084947228997 l -10.93273012258463 -15.047612082116077" fill="#ffa30f" stroke="none" /><path d="M 111.7513745106137 117.40417183066458 l 10.2390329359817 15.164344259193651 a39.29740780207561,39.29740780207561 0 0,0 -0.5638715830809008,0.37370333828837915 l -9.976486654160835 -15.33834561857335" fill="#ff9f0e" stroke="none" /><line stroke="#e1ed5e" stroke-width="0.3" x1="143.8653032363475" x2="146.44561519142675" y1="172.8068346515853" y2="177.08958963109032" /><path d="M 144.38136562736335 173.6633856474863 a86.0,86.0 0 0,1 -40.68145358897372,12.25698825130547" fill="none" id="id6" stroke="none" /><text fill="#e1ed5e" style="font-size:6.75px; font-family:Arial;" text-anchor="middle"><textPath startOffset="21.466115282336833" xlink:href="#id6">June</textPath></text><path d="M 110.8373102113329 117.98757091392108 l 9.41775010685779 15.631410801505242 a39.24924712750185,39.24924712750185 0 0,0 -0.5816965116202648,0.3436765522952615 l -9.147285724209144 -15.791205926094252" fill="#ff9e0e" stroke="none" /><path d="M 109.89434966115114 118.52300852407294 l 10.77495778286497 20.171576879092573 a43.869023350630094,43.869023350630094 0 0,0 -0.6691260607849722,0.35005513015204154 l -10.426140819553503 -20.354061428189333" fill="#ffe115" stroke="none" /><path d="M 107.93186726928326 119.44442032107085 l 10.337950917458924 25.342766850892527 a48.37022215530022,48.37022215530022 0 0,0 -0.7736446747208627,0.30784918227787395 l -9.900185166696195 -25.516962877576468" fill="#dfff1b" stroke="none" /><path d="M 107.2578585660854 119.70592522655815 l 6.836775662574449 18.56263645408977 a40.78163222757598,40.78163222757598 0 0,0 -0.6608186539350535,0.2369460584995502 l -6.516237448009661 -18.67757005362928" fill="#ffb510" stroke="none" /><path d="M 104.83641907484287 120.43548508189849 l 3.784110277574944 15.98912913231242 a37.43081680874722,37.43081680874722 0 0,0 -0.6282670817547794,0.14299154234538175 l -3.5083230464273027 -16.051897408235487" fill="#ff830c" stroke="none" /><path d="M 104.13013068566511 120.58985236759428 l 3.648403294951526 18.188307087043 a39.550616197183096,39.550616197183096 0 0,0 -0.6686547435069,0.12814927300479967 l -3.3347809368729213 -18.24841355839627" fill="#ffa30f" stroke="none" /><path d="M 102.34483914955558 120.86867818915974 l 2.0551291883770597 18.290307749901878 a39.405404466271314,39.405404466271314 0 0,0 -0.6747094744591983,0.06993639574829573 l -1.7399871173122585 -18.322973514105932" fill="#ffa00e" stroke="none" /><path d="M 101.62511606390274 120.93702456842531 l 0.9318874343687976 12.005881020910351 a33.04199291141586,33.04199291141586 0 0,0 -0.5674368143778652,0.03913376496133729 l -0.725087859212002 -12.020143130387973" fill="#ff3f05" stroke="none" /><line stroke="#e1ed5e" stroke-width="0.3" x1="102.19456741930631" x2="102.32365962044197" y1="184.97166512339345" y2="189.96999836594603" /><path d="M 102.22038585953345 185.97133177190398 a86.0,86.0 0 0,1 -42.740103519485714,-10.115201625700543" fill="none" id="id7" stroke="none" /><text fill="#e1ed5e" style="font-size:6.75px; font-family:Arial;" text-anchor="middle"><textPath startOffset="22.20632615414155" xlink:href="#id7">July</textPath></text><path d="M 99.45781275523022 120.99299961872073 l -0.3140140579433948 12.158340245495316 a33.16239459785026,33.16239459785026 0 0,0 -0.5705189646637171,-0.01964982669783187 l 0.5232533742817549 -12.15113362037139" fill="#ff4106" stroke="none" /><path d="M 97.65516085044442 120.86867818915974 l -2.248314428262953 20.009624233865615 a41.13554021497406,41.13554021497406 0 0,0 -0.7029722533867117,-0.08512015003042181 l 2.592414104701054 -19.967958555109846" fill="#ffba11" stroke="none" /><path d="M 96.58105272829116 120.7198165907248 l -2.5235803585632626 15.293632228277058 a36.500440140845065,36.500440140845065 0 0,0 -0.6190318713278498,-0.10762662562524056 l 2.786461201363162 -15.247927024130812" fill="#ff750a" stroke="none" /><path d="M 95.86986931433489 120.58985236759428 l -3.60836299445229 17.988695031450014 a39.34702789103039,39.34702789103039 0 0,0 -0.662919735010601,-0.13892127591932757 l 3.9174741908922774 -17.923917774804146" fill="#ffa00e" stroke="none" /><path d="M 94.81253420990036 120.34920634021253 l -4.781323798251761 18.75600697660214 a40.35584808191253,40.35584808191253 0 0,0 -0.6716549806226694,-0.17739018495957087 l 5.10346922168592 -18.670925442338987" fill="#ffae10" stroke="none" /><path d="M 94.11515582081647 120.15858648285463 l -3.3786255310841353 11.573512040040038 a33.05658705522609,33.05658705522609 0 0,0 -0.5448434304480175,-0.1641568561751763 l 3.5773439359723986 -11.513639814759136" fill="#ff3f05" stroke="none" /><path d="M 92.40401165467489 119.57807347666478 l -4.332527011710263 11.166753859897863 a32.97777867865085,32.97777867865085 0 0,0 -0.5274543246245239,-0.20988496118476296 l 4.524102412376645 -11.090522054307034" fill="#ff3e05" stroke="none" /><path d="M 91.7346041902142 119.30500536409082 l -7.292295183064987 17.032190697864667 a39.52763042068199,39.52763042068199 0 0,0 -0.6231800577170217,-0.2731838237294038 l 7.584395915439752 -16.904142320840812" fill="#ffa20f" stroke="none" /><path d="M 90.42595943632237 118.69057910512821 l -8.792856251793513 17.165539903565993 a40.286525898813935,40.286525898813935 0 0,0 -0.6144828929043834,-0.32146840731252224 l 9.087030047224392 -17.011642077308753" fill="#ffad10" stroke="none" /><line stroke="#e1ed5e" stroke-width="0.3" x1="58.666819895761336" x2="56.23545636021788" y1="174.27360380694188" y2="178.64263932499728" /><path d="M 58.180547188652646 175.14741091055294 a86.0,86.0 0 0,1 -31.652253787137756,-30.449443065178592" fill="none" id="id8" stroke="none" /><text fill="#e1ed5e" style="font-size:6.75px; font-family:Arial;" text-anchor="middle"><textPath startOffset="22.20632615414155" xlink:href="#id8">August</textPath></text><path d="M 88.8546689885994 117.79835938074946 l -14.91715599160703 23.821715389676644 a49.10686156412157,49.10686156412157 0 0,0 -0.7125597315690629,-0.45478933428421714 l 15.324997525223017 -23.56141162656862" fill="#d6ff1c" stroke="none" /><path d="M 88.24862548938628 117.40417183066458 l -15.49799625332999 22.953041755271613 a48.69530670867309,48.69530670867309 0 0,0 -0.6906458025883363,-0.47503248066490783 l 15.890798940541218 -22.682868485241602" fill="#dbff1b" stroke="none" /><path d="M 87.07902340077011 116.55440617244103 l -11.345663871242788 14.536109293142543 a39.43970070422535,39.43970070422535 0 0,0 -0.5315767511333772,-0.42231672048420227 l 11.594198115093524 -14.33865865865321" fill="#ffa10e" stroke="none" /><path d="M 86.51685102203217 116.09983520530335 l -12.764607831196734 15.241846165046667 a40.88087240548555,40.88087240548555 0 0,0 -0.5356066355427345,-0.4564555945473305 l 13.025079943316525 -15.019866180276384" fill="#ffb610" stroke="none" /><path d="M 85.97065885151581 115.62618273729859 l -14.637161183763856 16.303185801244858 a42.90982324870274,42.90982324870274 0 0,0 -0.5453643408274476,-0.49817739488215423 l 14.915625074058159 -16.048815639776127" fill="#ffd313" stroke="none" /><path d="M 85.44109423537348 115.13401014063109 l -16.735928946396907 17.397029864912355 a45.14017327650111,45.14017327650111 0 0,0 -0.55533171027376,-0.543508960334318 l 17.03291060904646 -17.106370801655466" fill="#fff316" stroke="none" /><path d="M 84.9287848128048 114.62390073753433 l -22.271396770991597 21.61038055789558 a52.03262254447739,52.03262254447739 0 0,0 -0.6181808780675556,-0.64816017919925 l 22.64008420043811 -21.223813262113833" fill="#b0ff20" stroke="none" /><path d="M 83.72743513129214 113.27417163493432 l -14.462784847982634 11.797862840936004 a39.664450518902896,39.664450518902896 0 0,0 -0.4270200852623915,-0.5327732137045174 l 14.663722845299887 -11.547161793653226" fill="#ffa40f" stroke="none" /><path d="M 82.6465618267979 111.8261652097733 l -15.283853340103791 10.415767344659894 a39.49552330429948,39.49552330429948 0 0,0 -0.37802273973058687,-0.5650927050983684 l 15.460879185245108 -10.151137725355705" fill="#ffa20e" stroke="none" /><path d="M 82.24976979558568 111.22182372390057 l -15.574729128293002 9.846456232535969 a39.42620112120089,39.42620112120089 0 0,0 -0.3577183541500787,-0.5767558868935165 l 15.741912122111037 -9.576904014277188" fill="#ffa10e" stroke="none" /><line stroke="#e1ed5e" stroke-width="0.3" x1="26.63291911575756" x2="22.317208475507996" y1="142.92168965132927" y2="145.44649492493687" /><path d="M 25.769776987707644 143.4266507060508 a86.0,86.0 0 0,1 -11.730757126820373,-40.83630448921669" fill="none" id="id9" stroke="none" /><text fill="#e1ed5e" style="font-size:6.75px; font-family:Arial;" text-anchor="middle"><textPath startOffset="21.46611528233685" xlink:href="#id9">September</textPath></text><path d="M 81.35079622478065 109.6543875284942 l -32.87868277230718 17.02075588514212 a58.02315372498146,58.02315372498146 0 0,0 -0.4515343316634478,-0.8909200734451399 l 33.166795773756895 -16.452281599994294" fill="#66ff29" stroke="none" /><path d="M 80.20201598880116 107.00284435728193 l -17.70068552891538 6.2609983777172 a39.77536601186064,39.77536601186064 0 0,0 -0.2227594164563754,-0.6474431355937227 l 17.805835776314982 -5.955382539034179" fill="#ffa60f" stroke="none" /><path d="M 79.86692584326677 105.97154293290107 l -17.568984820994245 5.211024721277723 a39.3255015289103,39.3255015289103 0 0,0 -0.18690355289200095,-0.6506357870596412 l 17.65608101077235 -4.907831458713486" fill="#ff9f0e" stroke="none" /><path d="M 79.58551787078972 104.9243191809786 l -18.117805598898254 4.370321865781638 a39.637451352853965,39.637451352853965 0 0,0 -0.15428299245416352,-0.6646470935314781 l 18.190349157282974 -4.057806114901585" fill="#ffa40f" stroke="none" /><path d="M 79.4281124754447 104.21870165774334 l -18.594902827659038 3.8132790338750073 a39.98187314677539,39.98187314677539 0 0,0 -0.13245436164664598,-0.6753819364251867 l 18.65778712228135 -3.4926333703818657" fill="#ffa90f" stroke="none" /><path d="M 79.10278846688536 102.07522291339032 l -25.79523753135533 2.561627320304769 a46.92211823573017,46.92211823573017 0 0,0 -0.07289776433216677,-0.8044207549327418 l 25.835509891964573 -2.117225176823461" fill="#f3ff19" stroke="none" /><path d="M 79.04373962182676 101.35467743843564 l -22.267240297355425 1.4394232321368885 a43.31371617865085,43.31371617865085 0 0,0 -0.04169182193296631,-0.7444354875949734 l 22.288718470175922 -1.0559160282064775" fill="#ffd914" stroke="none" /><line stroke="#e1ed5e" stroke-width="0.3" x1="15.007084014347285" x2="10.007500721073583" y1="101.09737516637583" y2="101.16192664675087" /><path d="M 14.007167355692545 101.11028546245083 a86.0,86.0 0 0,1 10.666146001902534,-42.60595125391555" fill="none" id="id10" stroke="none" /><text fill="#e1ed5e" style="font-size:6.75px; font-family:Arial;" text-anchor="middle"><textPath startOffset="22.20632615414155" xlink:href="#id10">October</textPath></text><path d="M 79.00019446554 99.90962569577889 l -18.33627733643015 -0.07891160247013133 a39.33644713676797,39.33644713676797 0 0,0 0.008742043752459744,-0.6770809226982183 l 18.332202285559976 0.3945287832288216" fill="#ff9f0e" stroke="none" /><path d="M 79.12142395522702 97.74499172005258 l -20.54182871871727 -2.2186375999318244 a41.66129424573758,41.66129424573758 0 0,0 0.08314333977392735,-0.7123213604010706 l 20.500595025939752 2.5719026986577567" fill="#ffc112" stroke="none" /><path d="M 79.21141760316559 97.0276538004421 l -18.610544011102327 -2.6609308276608847 a39.799811202742774,39.799811202742774 0 0,0 0.10280500952272535,-0.677356564308925 l 18.561983108140296 2.9808865043619015" fill="#ffa60f" stroke="none" /><path d="M 79.81627453868168 94.20196356495316 l -19.11476135976302 -5.490962658183756 a40.887804623795404,40.887804623795404 0 0,0 0.20014405692261186,-0.6747862630026887 l 19.0174114057287 5.819178307932984" fill="#ffb610" stroke="none" /><path d="M 80.2630227832202 92.82701384747504 l -43.546123345282396 -15.825915808743934 a67.33275806152704,67.33275806152704 0 0,0 0.4052643648812887,-1.0859070131162047 l 43.26725439189948 16.57314595888948" fill="#36ff6b" stroke="none" /><path d="M 80.38941819471856 92.48833698450439 l -34.47513296829947 -13.20540021931044 a57.91771103595256,57.91771103595256 0 0,0 0.3646235702400614,-0.9279272148669458 l 34.24271584817772 13.796876439073149" fill="#68ff28" stroke="none" /><path d="M 80.95270993114464 91.15688171328213 l -16.768414712500633 -7.785100885603015 a39.48749652520385,39.48749652520385 0 0,0 0.2915339419969127,-0.6140448322701643 l 16.631922576661967 8.072588133513712" fill="#ffa20e" stroke="none" /><path d="M 81.6062741919709 89.86733742301443 l -16.122099818544882 -8.881278279275362 a39.40649902705708,39.40649902705708 0 0,0 0.3324076279076394,-0.5913160790078359 l 15.966834549344812 9.157477868217981" fill="#ffa00e" stroke="none" /><line stroke="#e1ed5e" stroke-width="0.3" x1="26.266209847984243" x2="21.928928074336255" y1="57.711370442889674" y2="55.22380399835377" /><path d="M 25.398753493254645 57.213857153982495 a86.0,86.0 0 0,1 29.58750427330803,-30.492523968695096" fill="none" id="id11" stroke="none" /><text fill="#e1ed5e" style="font-size:6.75px; font-family:Arial;" text-anchor="middle"><textPath startOffset="21.46611528233685" xlink:href="#id11">November</textPath></text><path d="M 81.96595687620814 89.24020034530311 l -15.783652051768938 -9.417130297998913 a39.379499861008156,39.379499861008156 0 0,0 0.352323137870169,-0.5791266015269929 l 15.61921311561255 9.68742467273298" fill="#ffa00e" stroke="none" /><path d="M 82.34701348167596 88.62581576622439 l -16.883980746740733 -10.878697914010614 a41.08519041882876,41.08519041882876 0 0,0 0.38816381028838876,-0.5912001134575181 l 16.694220301094422 11.167716091445799" fill="#ffb911" stroke="none" /><path d="M 83.6137871275137 86.86637796730984 l -14.695321813357076 -11.778365376263679 a39.833012879911045,39.833012879911045 0 0,0 0.4334239765809596,-0.5313265466603924 l 14.490399344699723 12.029576092532155" fill="#ffa70f" stroke="none" /><path d="M 85.57189188830299 84.74124197986013 l -12.856801976130958 -13.596989206616364 a39.712976047071905,39.712976047071905 0 0,0 0.5007468080146837,-0.46538958469103664 l 12.62084728432142 13.816283377382048" fill="#ffa50f" stroke="none" /><path d="M 86.10567301691215 84.25364557470407 l -27.07298411705375 -30.68164465802689 a61.9183307079318,61.9183307079318 0 0,0 0.8052514330369567,-0.6983061076502582 l 26.54083888537002 31.143115759096826" fill="#3aff2e" stroke="none" /><path d="M 87.80319425747018 82.90503203632743 l -10.665282727162356 -14.948394718512098 a39.363081449221646,39.363081449221646 0 0,0 0.554961079387934,-0.38878570133743057 l 10.406390508190762 15.129765262613471" fill="#ffa00e" stroke="none" /><path d="M 88.70189139769569 82.29822771554957 l -6.036209767005534 -9.45747775295013 a32.21961290770941,32.21961290770941 0 0,0 0.47007011013820255,-0.29435785984422896 l 5.872520504495089 9.559979954117289" fill="#ff3204" stroke="none" /><line stroke="#e1ed5e" stroke-width="0.3" x1="56.762969772571076" x2="54.21961505331055" y1="26.818313649435495" y2="22.513508569990535" /><path d="M 56.25429882871897 25.957352633546506 a86.0,86.0 0 0,1 42.265352541879196,-11.944610805530505" fill="none" id="id12" stroke="none" /><text fill="#e1ed5e" style="font-size:6.75px; font-family:Arial;" text-anchor="middle"><textPath startOffset="22.20632615414155" xlink:href="#id12">December</textPath></text><path d="M 89.3179101791058 81.91981866633112 l -18.67577864251464 -31.610056652365728 a57.714852436990355,57.714852436990355 0 0,0 0.859685448932022,-0.4979853008775979 l 18.1288964611173 31.926846110633374" fill="#6aff28" stroke="none" /><path d="M 90.91171255644093 81.06846463323043 l -7.922145297759547 -16.5023801036919 a39.30543458117124,39.30543458117124 0 0,0 0.6124568861570038,-0.2875567202009662 l 7.6369102003029345 16.636301806532874" fill="#ff9f0e" stroke="none" /><path d="M 91.56875222667455 80.76684994638697 l -8.536960636031905 -19.47429957331553 a42.26330267790956,42.26330267790956 0 0,0 0.6687991394901764,-0.2863448883268864 l 8.20047773875142 19.618363989605204" fill="#ffca12" stroke="none" /><path d="M 92.23578459929587 80.48803036053334 l -20.930224310099838 -52.59899168290181 a77.61031898628613,77.61031898628613 0 0,0 1.2455230508630324,-0.4832435933732653 l 20.02171809423713 52.95147798016563" fill="#44ffe7" stroke="none" /><path d="M 92.57280143429618 80.3572730644239 l -22.28159569711144 -58.92818080672833 a84.0,84.0 0 0,0 1.3568706969097222,-0.4997469287747105 l 21.26394267442915 59.30299100330936" fill="#4dd2ff" stroke="none" /><path d="M 93.94186890950719 79.89281104454417 l -6.347123085676675 -21.06636540228037 a43.001766354707186,43.001766354707186 0 0,0 0.7105730276312022,-0.2074357519609291 l 5.983559840322052 21.172499483159996" fill="#ffd513" stroke="none" /><path d="M 94.63758080256005 79.69619591428918 l -5.10636641364818 -19.33430778818322 a40.997260702372124,40.997260702372124 0 0,0 0.6838560005859396,-0.17433012123837324 l 4.772801524377241 19.419340905590456" fill="#ffb811" stroke="none" /><path d="M 95.692805502759 79.44645832069477 l -11.718267015705441 -55.91850789900673 a78.13315418828762,78.13315418828762 0 0,0 1.318714970410125,-0.26452181723793183 l 10.75398563582818 56.11193367232187" fill="#45ffed" stroke="none" /><path d="M 96.40284397218896 79.31037775812273 l -6.337937600057439 -36.45366887729207 a58.00053280207562,58.00053280207562 0 0,0 0.9850998132801864,-0.162549909852138 l 5.709508580638366 36.55736505008383" fill="#67ff28" stroke="none" /></svg>